<svg id="ae141c29-62eb-4502-adf9-7b3d5b93d590" data-name="Layer 1" xmlns="http://www.w3.org/2000/svg" viewBox="0 0 523.79 407.34"><defs><style>.a2bace1b-92aa-4bde-bee8-437e2ba3bf96{fill:#f37e8f;stroke:#231f20;stroke-width:3px;}.a2bace1b-92aa-4bde-bee8-437e2ba3bf96,.be1c2138-c580-4731-8f6d-37a139f73e05{stroke-miterlimit:10;}.b18c0185-3511-4be2-b2b2-2d423f00788e{fill:#ca426b;}.f1fe56d0-f118-4b39-afdc-5d654bf2d6a5{fill:#ef507e;}.ba4be15d-0f98-4406-acb9-bcedcc749112{fill:#cc446c;}.f412e49b-1ba2-4910-a484-c4cc68e980ed{fill:#ce446c;}.a822258b-603b-41a1-bce9-fc434386b2d4{fill:#231f20;}.be1c2138-c580-4731-8f6d-37a139f73e05,.fba91a0d-8a0e-4d29-8fc8-16d5bf6b4984{fill:#423d3e;}.be1c2138-c580-4731-8f6d-37a139f73e05{stroke:#423d3e;stroke-width:0.5px;}.bb5b65e8-c97b-4388-9583-8a60e13b4450{font-size:51.11px;fill:#fff;font-family:LCD5x8H;}</style></defs><title>uwucode logo</title><path class="a2bace1b-92aa-4bde-bee8-437e2ba3bf96" d="M476.42,498.81,60,490.75c-9.37,0-18.68-15.89-18.68-25.26l9.23-194.73L52.18,183c0-5.07,1.42-19.56,15.59-23.29,11.82-3.11,33.59-3.43,34.08-3.9l116.53-7.75L471,141.56c13-.24,18.68-2.26,18.68,7.11l3.75,333.1C490.65,490.36,482.69,497.94,476.42,498.81Z" transform="translate(-39.82 -92.96)"/><path class="b18c0185-3511-4be2-b2b2-2d423f00788e" d="M174.43,267.6a42.72,42.72,0,0,0-.75,8.06,27.16,27.16,0,0,1-.09,3.61,31.72,31.72,0,0,0,.13,4.13,30.69,30.69,0,0,0,.67,8.39,34.61,34.61,0,0,1,.94,3.77c.2,1.23.15,2.16.29,3.34a75.41,75.41,0,0,0,1.9,8.26,23.07,23.07,0,0,0,3.26,7.11,14.34,14.34,0,0,0,2.06,2.66c1,1,1.71,2.29,2.77,3.19a13.93,13.93,0,0,0,3.55,2.27c1.23.52,2.37,1.16,3.66,1.6,2.6.9,5.23,1.63,7.87,2.45a23,23,0,0,0,4,1.15c1.41.17,2.8.38,4.2.59a57.7,57.7,0,0,0,9.1.47,5,5,0,0,0,3.42-.8c.55-.41,1.85-.74,2.68-1.17a3.28,3.28,0,0,0,1.49-1.48c.05-.11.32-.47,0-.12a8.89,8.89,0,0,1,.83-.61,13.82,13.82,0,0,1,1.07-.9,10.41,10.41,0,0,0,1.61-1.1c.47-.44.8-1,1.25-1.44s.85-.7,1.22-1.12a11.43,11.43,0,0,0,1-1.51c.32-.48.82-.94,1.16-1.44a28.3,28.3,0,0,0,2-3.43c.66-1.29.87-2.76,1.45-4.09a32,32,0,0,0,1.52-3.8c.35-1.21.9-2.28,1.28-3.47a35.66,35.66,0,0,0,1.09-4.45,31.76,31.76,0,0,0,.19-5.34c0-1.33.13-2.58.13-3.93s-.12-2.77-.13-4.18c0-2.77.53-5,.52-7.73,0-1.72-.14-3.48,0-5.19.06-.75.23-1.47.32-2.21a7.93,7.93,0,0,0,.08-1l0-.4q0-.74-.18.18c1.63-2.78-2.69-5.3-4.32-2.53a5.35,5.35,0,0,0-.47,2.87c0,1.33-.41,2.65-.44,4s0,2.52,0,3.77a28.09,28.09,0,0,1-.22,3.13c-.19,1.88-.3,4.14-.3,6.18,0,1,.13,2.05.13,3.09s-.14,1.95-.14,3.09,0,2.55,0,3.83a17.44,17.44,0,0,1-.68,3.71,11.53,11.53,0,0,1-.79,2.54c-.52,1.11-.7,2.32-1.11,3.47-.35,1-.84,1.87-1.25,2.8-.49,1.12-.66,2.41-1.22,3.48a19.31,19.31,0,0,1-1.66,2.94c-.28.36-.61.66-.88,1s-.43.82-.71,1.16c-.39.49-1,.81-1.38,1.3a7.1,7.1,0,0,1-1,1.13c-.43.33-.94.53-1.38.88s-.74.65-1.12.95a5,5,0,0,0-1.57,1.52c-.2.4-.45.39.09.17.82-.33-.05-.1-.24,0a18.72,18.72,0,0,0-2.08.82,5,5,0,0,0-.5.29c-.11.07-1.06.73-.54.47l1.26-.34c-1.25.09-2.57,0-3.82,0a37.34,37.34,0,0,1-4.73-.18c-1.3-.17-2.58-.43-3.87-.62-.7-.1-1.43-.11-2.12-.25a18.73,18.73,0,0,1-2.25-.78c-2.61-.89-5.31-1.46-7.89-2.44-1.24-.47-2.37-1-3.57-1.54a7.8,7.8,0,0,1-2.75-2c-1.62-2-3.24-3.48-4.42-5.75a15.57,15.57,0,0,1-1.48-3.38c-.32-1.35-.69-2.67-1-4a38.37,38.37,0,0,1-1-4.22c-.18-1.35-.08-2.54-.33-3.86a37.33,37.33,0,0,0-.89-3.76,21.47,21.47,0,0,1-.61-3.92c-.18-1.68.12-3.38-.1-5.06a31.15,31.15,0,0,1,.08-4,45.48,45.48,0,0,1,.53-9,2.57,2.57,0,0,0-1.75-3.08,2.53,2.53,0,0,0-3.07,1.75Z" transform="translate(-39.82 -92.96)"/><path class="b18c0185-3511-4be2-b2b2-2d423f00788e" d="M320.25,267.61c0,2.95.05,5.9.31,8.85a21.24,21.24,0,0,1,.33,3.64c-.12,1.33-.3,2.65-.4,4a25.67,25.67,0,0,0,0,3.72c.1,1.4.06,2.83.19,4.23.27,2.77.79,5.51,1.19,8.27a27.71,27.71,0,0,0,6.88,14.24c1.62,1.72,3.12,3.56,5.26,4.67,1,.55,2.07,1.17,3.05,1.82s2.14,1.18,3.18,1.84c2.1,1.33,3.81,2.83,6.23,3.58,2.63.82,5.56.93,8.28,1.31a39.8,39.8,0,0,0,8.31.21c1.42-.1,2.28-.62,3.59-.82a29,29,0,0,0,3.84-.48c2.53-.74,3.88-3.15,5.38-5.11.18-.23.9-1.12.57-.86.54-.42,1.14-.71,1.66-1.18a26.67,26.67,0,0,0,2.75-3.06,33.73,33.73,0,0,0,4.69-7,40.69,40.69,0,0,0,2.61-6.79,35.53,35.53,0,0,0,1.29-8.56c0-1.64,0-3.28,0-4.92,0-1.45.24-2.87.28-4.32.13-6.23.11-12.47.11-18.71,0-3.22-5-3.22-5,0,0,5.2-.13,10.39-.13,15.59,0,1.18.08,2.39,0,3.57s-.26,2.57-.26,3.87,0,2.54,0,3.81a31.12,31.12,0,0,1-.19,3.62,26.92,26.92,0,0,1-1.6,6.74,26.54,26.54,0,0,1-2.9,6.08,66.55,66.55,0,0,1-4.5,5.8c-.74.82-1.72,1.23-2.45,2a30.6,30.6,0,0,0-2,2.75,5.32,5.32,0,0,1-1.65,1.81c-1,.46-2.54.27-3.64.45s-2,.64-2.9.7c-1.3.09-2.64,0-4,0a57,57,0,0,1-7.7-.75,12.2,12.2,0,0,1-5.88-2c-.9-.64-1.72-1.33-2.65-1.91s-2.05-1.08-3-1.74a28.87,28.87,0,0,0-2.89-1.71,7.25,7.25,0,0,1-2.43-2c-.65-.76-1.45-1.38-2.09-2.15a26.81,26.81,0,0,1-2-2.85,28.26,28.26,0,0,1-2.88-6.39c-.82-2.63-.87-5.54-1.24-8.25-.2-1.41-.19-2.75-.28-4.18a32,32,0,0,1-.25-4.16c.08-1.26.2-2.52.37-3.78a16.33,16.33,0,0,0-.2-4.47,73.44,73.44,0,0,1-.32-9c0-3.22-5-3.23-5,0Z" transform="translate(-39.82 -92.96)"/><path class="b18c0185-3511-4be2-b2b2-2d423f00788e" d="M244,317a24.07,24.07,0,0,0-.49,4.07,31.2,31.2,0,0,0,.57,4.09,18.81,18.81,0,0,1,.48,4.67,31.14,31.14,0,0,0-.11,4.73c.39,5.66,2.41,11.29,6.81,15.07a10.58,10.58,0,0,0,3.5,2.35,26.82,26.82,0,0,0,4.66.53,82,82,0,0,0,9.14.1,12.84,12.84,0,0,0,2.15-.21c.62-.09,1.23,0,1.85-.09a7,7,0,0,0,3.92-2,26.22,26.22,0,0,0,2.65-2.39c.74-.91,1.23-1.9,2-2.76a8.36,8.36,0,0,0,1.83-3.26,31.32,31.32,0,0,0,1.16-3.91,20.17,20.17,0,0,0,0-4.11c-.06-1.35-.28-2.66-1.62-3.34s-2.75.22-3.36,1.5a7.74,7.74,0,0,0-.29,4.32,26.54,26.54,0,0,0,1.12,4.2,36.7,36.7,0,0,0,1.48,4.2c1,2.19,2.39,4.77,4.5,6a11.36,11.36,0,0,0,4.17,1.22c1.27.19,2.52.41,3.83.49a54,54,0,0,0,9.08-.15,14.7,14.7,0,0,0,7.26-2.58,13.55,13.55,0,0,0,1.63-1.76,13.81,13.81,0,0,0,1.32-1.33,14.88,14.88,0,0,0,1.61-4.39,34.06,34.06,0,0,0,1.13-8.46,71,71,0,0,1,1-7.55,37.19,37.19,0,0,0,.46-4.33,19.11,19.11,0,0,0-.55-5.06c-.53-2.35-4.14-1.36-3.61,1,.12.55.32,1.12.4,1.68a10.84,10.84,0,0,1,0,1.89,24,24,0,0,1-.2,3.06c-.28,2.06-.53,4.14-.9,6.18a57.06,57.06,0,0,0-.45,5.71,30.6,30.6,0,0,1-1.3,6.38,5.64,5.64,0,0,1-.66,1.74c-.21.26-.56.48-.8.73s-.57.69-.86,1a4.5,4.5,0,0,1-1.52,1.05,10.23,10.23,0,0,1-1.11.65c-.44.15-1,.2-1.47.31a25.74,25.74,0,0,1-3.61.41,40.1,40.1,0,0,1-7.59,0c-1.86-.2-4.53-.22-6-1.62a14.79,14.79,0,0,1-3.3-6.29c-.35-1.27-.81-2.51-1.16-3.78-.19-.68-.76-2.94-.14-3.48l-1.33.55.23,0-.95-.26a3,3,0,0,1-.24-.43,2.15,2.15,0,0,0,0,.67c0,.48.07.91.07,1.39a11.38,11.38,0,0,1-.54,3.76,16.2,16.2,0,0,1-.87,2.6c-.47.87-1.36,1.44-1.88,2.29a6.84,6.84,0,0,1-1.37,1.87c-.82.67-1.56,1.48-2.41,2.11s-1.9.51-3,.68a36.35,36.35,0,0,1-3.78.25c-1.25.06-2.51,0-3.76,0a22.5,22.5,0,0,1-3.85-.24,13.27,13.27,0,0,1-3.23-.34,9.29,9.29,0,0,1-2.55-2,18.07,18.07,0,0,1-5-12.39c-.09-2.83.36-5.51-.2-8.32a30.93,30.93,0,0,1-.69-3.92,16.25,16.25,0,0,1,.33-3.69,1.94,1.94,0,0,0-1.31-2.31A1.88,1.88,0,0,0,244,317Z" transform="translate(-39.82 -92.96)"/><path class="f1fe56d0-f118-4b39-afdc-5d654bf2d6a5" d="M172,330a63.1,63.1,0,0,1-6.52,2.31,9.52,9.52,0,0,0-3,1.28c-.28.23-.44.54-.71.79a12.45,12.45,0,0,1-1.38.95,27.18,27.18,0,0,0-2.66,1.88c-.84.74-2,1-2.8,1.76s-1.71,1.36-2.59,2a12.65,12.65,0,0,0-1.49,1.23,11.24,11.24,0,0,1-1,1.18c-1.24,1,.54,2.78,1.77,1.77a7.87,7.87,0,0,0,1-1.18,9.25,9.25,0,0,1,1.37-1.13c.85-.65,1.74-1.24,2.54-1.94s1.89-1,2.71-1.72a9.4,9.4,0,0,1,1.23-1c.5-.3,1-.56,1.48-.89s.84-.55,1.24-.85.57-.67.9-.92a8.68,8.68,0,0,1,2.7-1,36.52,36.52,0,0,0,6.5-2.34c1.45-.7.18-2.86-1.26-2.16Z" transform="translate(-39.82 -92.96)"/><path class="f1fe56d0-f118-4b39-afdc-5d654bf2d6a5" d="M173.41,347.46a10.7,10.7,0,0,1,1.57-1.28,19.44,19.44,0,0,1,2.61-1c1.5-.55,2.93-1.26,4.43-1.81.76-.27,1.51-.55,2.23-.89a15.49,15.49,0,0,1,2.11-1c.87-.28,1.73-.6,2.61-.88.39-.12.79-.24,1.17-.38a3.08,3.08,0,0,0,.52-.24c.06,0,.53-.33.25-.23,1.51-.54.86-3-.66-2.41a5.93,5.93,0,0,0-.88.51,7.83,7.83,0,0,1-1.07.34c-.92.3-1.82.64-2.75.92a13.52,13.52,0,0,0-2.31,1.08,19.1,19.1,0,0,1-2.45.95c-1.55.56-3,1.32-4.58,1.87a13.62,13.62,0,0,0-2.71,1.1,21.1,21.1,0,0,0-1.86,1.54c-1.24,1,.54,2.79,1.77,1.77Z" transform="translate(-39.82 -92.96)"/><path class="f1fe56d0-f118-4b39-afdc-5d654bf2d6a5" d="M380.86,340.4c-.14.51,0,.15.21-.07a4.57,4.57,0,0,1,.69-.63c.54-.36,1-.73,1.56-1.12a18.41,18.41,0,0,0,2.33-1.9c.78-.79,1.87-1.2,2.71-1.94A22.72,22.72,0,0,0,391,332c.73-.87,1.79-1.36,2.54-2.2a31.41,31.41,0,0,1,2.25-2.78,21.5,21.5,0,0,0,2.66-2.47,25.91,25.91,0,0,1,2-1.91,1.25,1.25,0,0,0-1.77-1.77,27.11,27.11,0,0,0-2.05,2,25,25,0,0,1-2.72,2.52c-.93.85-1.46,2-2.34,2.89a26.59,26.59,0,0,0-2.63,2.35,15,15,0,0,1-2.63,2.65c-.47.35-1,.57-1.5.9a9.7,9.7,0,0,0-1.33,1.23,17.77,17.77,0,0,1-2.54,1.94c-.89.57-2.18,1.34-2.48,2.44a1.25,1.25,0,0,0,2.41.66Z" transform="translate(-39.82 -92.96)"/><path class="f1fe56d0-f118-4b39-afdc-5d654bf2d6a5" d="M402.74,339.94a14.23,14.23,0,0,1,1.71-2,8.45,8.45,0,0,1,1.7-1.88,16.64,16.64,0,0,0,2.21-1.61,16.76,16.76,0,0,1,1.52-1.74c.69-.55,1.54-.87,2.27-1.37s1.6-1.19,2.33-1.81,1.21-1.49,1.93-2.13a8.74,8.74,0,0,0,1.56-1.82c.89-1.35-1.28-2.6-2.16-1.27a5.37,5.37,0,0,1-.49.75c-.31.35-.73.6-1.05.93a14.09,14.09,0,0,1-1.82,2,22,22,0,0,1-2.3,1.66,10.54,10.54,0,0,0-2.31,1.59,22.64,22.64,0,0,1-1.5,1.71c-.7.58-1.52,1-2.23,1.59a13.48,13.48,0,0,0-1.79,2.12,12.86,12.86,0,0,0-1.74,2.1c-.7,1.44,1.45,2.71,2.16,1.26Z" transform="translate(-39.82 -92.96)"/><path class="ba4be15d-0f98-4406-acb9-bcedcc749112" d="M225,412.15c-.64-1-1.53-1.69-2.23-2.61a6.85,6.85,0,0,0-3.81-2.76,29,29,0,0,0-7.21-.59,11,11,0,0,0-3.86.6,13.77,13.77,0,0,0-4.28,1.87,20.3,20.3,0,0,0-2.18,2.44,23.92,23.92,0,0,0-2.24,3.56c-.56,1-1.42,1.71-2,2.7a19.27,19.27,0,0,0-1.39,3.83,35.18,35.18,0,0,0-1,3.93,15.44,15.44,0,0,0-.17,1.8c-.05.55-.24,1.15-.27,1.78-.06,1.12-.11,2.31-.11,3.43a39.47,39.47,0,0,0,0,4.07c.31,2.95,2.91,5.21,5.15,6.88a9.64,9.64,0,0,0,4.08,2,24.68,24.68,0,0,0,4.54.36,17.23,17.23,0,0,0,4.75-.58c1.67-.46,2.22-.22,3.77-1l-1.26.35a35.81,35.81,0,0,0,5.35-.91c.88-.23,1.67-.55,2.56-.73a8.07,8.07,0,0,0,2.65-1l.74-.47c.07-.05,1.18-.78.81-.58a12.51,12.51,0,0,0,2.24-1.29c.57-.47,1-1.07,1.52-1.57s1.33-.81,1.95-1.32a2.52,2.52,0,0,0,0-3.54,2.56,2.56,0,0,0-3.53,0,2.08,2.08,0,0,0-.58.22,5.78,5.78,0,0,0-1.07.83c-.58.52-1,1.17-1.59,1.63-.36.27-1.06.47-1.61.82a16,16,0,0,1-1.63,1.09,20.82,20.82,0,0,1-2.33.57c-.83.26-1.61.55-2.46.76-1.6.38-3.26.33-4.78,1l1.26-.34c-2,0-3.83.95-5.8,1-1.77.05-4.21.25-5.78-.72a14.7,14.7,0,0,1-2-1.66c-.62-.57-1.67-1.27-1.93-2.12a10.9,10.9,0,0,1,0-2.91c0-1.05.16-2.06.12-3.11a26.21,26.21,0,0,1,.26-2.64,16,16,0,0,1,.4-2.81,13.75,13.75,0,0,1,2.18-5.63c1.2-1.51,1.92-3.33,3.2-4.77.49-.53.88-1.3,1.49-1.65a15.12,15.12,0,0,1,3.09-1.09,9.17,9.17,0,0,1,2.87-.14c.92.05,2,.07,2.91.17s2.06.07,2.75.92c.33.41.61.86,1,1.25a11.24,11.24,0,0,1,1.12,1.17c1.75,2.69,6.08.18,4.32-2.53Z" transform="translate(-39.82 -92.96)"/><path class="ba4be15d-0f98-4406-acb9-bcedcc749112" d="M261.8,412.93c-.9-1.95-3.61-2.31-5.14-2.89a16.24,16.24,0,0,0-5-1,6.66,6.66,0,0,0-3.13.41,7.09,7.09,0,0,0-.95.58c-1,.71-.51.38-.27.25-.33.18-.69.28-1,.46a5.22,5.22,0,0,0-2.09,2.25,14.36,14.36,0,0,1-1.13,1.82,25.11,25.11,0,0,0-2.52,4.77,14.75,14.75,0,0,0-1.24,4.66c-.06,1-.06,2.06,0,3.09s.23,2,.19,3a28.67,28.67,0,0,0,.34,5.46c-.08-.55.06.54.06.51a3.77,3.77,0,0,0,.18.57c.16.45.35.88.53,1.32a9.26,9.26,0,0,0,1.48,2.23,24.33,24.33,0,0,0,3.13,3.33c2.95,2.38,6.9,2.41,10.41,1.82a7.83,7.83,0,0,0,1.06-.18c.13,0,1.13-.4.24-.21a9.24,9.24,0,0,0,1.64-.29,16.78,16.78,0,0,0,2.53-1.09c1.35-.86,3.21-1.59,4.25-3.2.87-1.35,2.11-2.35,2.9-3.64a23.91,23.91,0,0,0,2.25-4.91,16,16,0,0,0,.81-2.86c.18-1.24.14-2.45.21-3.69.13-2.6.15-4.05-.84-6.36a12.64,12.64,0,0,0-1.49-2.63c-.63-.84.11.15-.19-.22s-.46-.59-.7-.87-.66-.69-1-1a24.31,24.31,0,0,0-2.06-2,13.47,13.47,0,0,0-2.67-1.52,2.57,2.57,0,0,0-3.42.9,2.51,2.51,0,0,0,.89,3.42,6.85,6.85,0,0,1,2.56,1.52,27.14,27.14,0,0,1,2.48,2.63,11.86,11.86,0,0,1,1.35,2.74c.46,1.27.19.41.14.12a5.19,5.19,0,0,1,.09,1c0,.93-.14,1.84-.16,2.77a14.81,14.81,0,0,1-1.54,6.64,11.21,11.21,0,0,1-1.68,2.57c-.34.34-.68.67-1,1-.48.56-.8,1.34-1.28,1.85a3.92,3.92,0,0,1-.75.5c.07,0,.35-.17,0,0s-.81.28-1.17.5-.48.42-.75.57c.79-.44-.43,0-.48.06a4.37,4.37,0,0,0-1.11.49c-.27.22.73,0-.11,0a5,5,0,0,0-1.56.46c.68-.2-.63,0-.79.05s-.34.09-.58.11a15,15,0,0,1-1.77.05,8.68,8.68,0,0,1-3.09-.63,5.6,5.6,0,0,1-1.87-1.77,12.48,12.48,0,0,1-2-2.7,4.83,4.83,0,0,1-.28-1.05c-.06-.56-.09-1.12-.14-1.67-.1-1.17,0-2.27-.05-3.45-.1-3.24-.6-5.56.8-8.41,1.17-2.39,2.87-4.69,3.75-6.81l-.65,1.11c.6-.7,1.59-.75,2.22-1.47.28-.14.22-.14-.18,0h.35c.22,0,.46,0,.69,0a9.4,9.4,0,0,1,1.16.05,11.77,11.77,0,0,1,1.33.34c.23.06,1.34.42.93.27.59.21,1.14.48,1.74.66a4.91,4.91,0,0,0,.95.25c.4,0,.11.28-.08-.15a2.51,2.51,0,0,0,3.42.9,2.55,2.55,0,0,0,.89-3.42Z" transform="translate(-39.82 -92.96)"/><path class="ba4be15d-0f98-4406-acb9-bcedcc749112" d="M310.07,443.32a21.3,21.3,0,0,0-.35-3.78c-.19-1.08-.48-2.05-.59-3.1,0,.27,0,.16,0-.05,0-.38-.1-.76-.16-1.13a16.72,16.72,0,0,1-.46-1.82,8.72,8.72,0,0,1,.18-1.44,5.64,5.64,0,0,0,.05-.82l-.09-.66c0,.3,0,.25,0-.14-.44-2.17-.82-4.39-1.14-6.32-.2-1.21-.36-2.45-.69-3.87-.07-.35-.18-.75-.23-1.07s-.13-1-.07-.47a5.26,5.26,0,0,0-.46-1.54l.34,1.26c-.21-2.59-.74-4.44-1.09-7.08-.11-.87,0,.25,0-.37a9.62,9.62,0,0,0-.22-1.17c-.14-.61-.21-1.26-.29-1.88-.15-1.19-.24-2.15-.44-3.56-.27-1.91-.69-4.49-1-6.56-.22-1.25-.65-2.47-.88-3.78a12.81,12.81,0,0,1-.07-1.75c0-.39-.09-.79-.14-1.19.08.59-.19-1.32-.07-.21a2.57,2.57,0,0,0-2.5-2.5,2.52,2.52,0,0,0-2.5,2.5c0,.16.21,1.33.08.53.05.29.11.59.13.87.05.82,0,1.6.13,2.41.2,1.28.55,2.58.87,3.83.46,1.78.75,4.89,1.08,6.86.35,2.16.66,4.83,1,7,.18,1.15.41,2.38.54,3.45a14.84,14.84,0,0,0,.93,4.16l-.35-1.26c.09,1.87.79,4.31,1.13,6.46.19,1.21.32,2.44.56,3.64.1.5.23,1,.32,1.48.05.22.35,1.45.17.64.17.78.11.36,0,1.15a8.64,8.64,0,0,0-.12,1.76c.08,1.18.55,2.26.67,3.42.2,1.8.88,3.88.85,6.12-.05,3.22,4.95,3.22,5,0Z" transform="translate(-39.82 -92.96)"/><path class="ba4be15d-0f98-4406-acb9-bcedcc749112" d="M302,410.16a20.17,20.17,0,0,0-7.14,1.15,14,14,0,0,0-3.42,1.92c-1,.71-2.12,1.2-3.13,1.88a37.75,37.75,0,0,0-5.4,4.71c-1.78,1.75-2.3,3.29-3.1,5.6a12.86,12.86,0,0,0-.72,6.53c.09.44.36,1.67.47,2.41a7,7,0,0,0,1,3.31,14.62,14.62,0,0,0,2.71,2.62c-.77-.63.12.26.39.53a10.24,10.24,0,0,0,1.32,1,12,12,0,0,0,3.18,1.55c1.15.35,2.43.15,3.61.41a24.53,24.53,0,0,0,7.72.26,15.48,15.48,0,0,0,2.43-.53,7.08,7.08,0,0,0,.88-.31,1.87,1.87,0,0,0,.47-.23l.3-.23c-.62.1.26,0,.44-.07a2.19,2.19,0,0,0,.49-.23c-.2,0-.21,0,0,0a19.28,19.28,0,0,0,2.13-.85l-1.26.35c-.28-.11-.23-.11.16,0a2.8,2.8,0,0,0,.81.09l-1.27-.34.13.06c2.84,1.51,5.37-2.81,2.52-4.32a4,4,0,0,0-3-.41,21.2,21.2,0,0,0-2.72,1.1,6.06,6.06,0,0,0-1.06.4l-.51.39.39-.28c-.26.05-.53.15-.79.22a18.93,18.93,0,0,1-3,.41c-2,.16-3.88-.47-5.9-.67a6.47,6.47,0,0,1-2.41-.42,5.71,5.71,0,0,1-1.18-.67c.2.16-.66-.56-.39-.29a21.53,21.53,0,0,0-2-2c-.78-.65-.57-1-.73-1.87s-.29-1.61-.43-2.44c-.07-.47,0,.41,0-.07,0-.2,0-.4,0-.6,0-.52,0-1,.06-1.55a5.08,5.08,0,0,1,.07-.67c0,.24-.29.78.19-.41.16-.39.28-.79.42-1.18a17.2,17.2,0,0,1,1-2.45c-.18.34.33-.32.48-.46.36-.37.72-.72,1.09-1.07.76-.7,1.43-1.47,2.25-2.09a63.56,63.56,0,0,1,5.92-3.89,12.63,12.63,0,0,1,6.54-1.38c3.22,0,3.22-5,0-5Z" transform="translate(-39.82 -92.96)"/><path class="ba4be15d-0f98-4406-acb9-bcedcc749112" d="M319.21,426.34c5.21,0,11,.64,15.92-1.39,2.12-.88,4.37-1.66,6.41-2.7s3.91-2.48,3.3-4.95a9.64,9.64,0,0,0-3.89-5,17.51,17.51,0,0,0-5.89-3,16,16,0,0,0-7.29.18,12.82,12.82,0,0,0-6.22,3.18c-1.8,2-3.52,4-4,6.67a14.6,14.6,0,0,0-.25,3.3c0,.51.09,1,.1,1.55,0,.2,0,.4,0,.61,0-.15.25-.48,0-.11h4.32v0c-.13-3.2-5-3.24-5,0a49.74,49.74,0,0,0,.56,5.58,10.48,10.48,0,0,0,2.21,5.28,14.14,14.14,0,0,0,3.49,3.78,21.36,21.36,0,0,0,5.09,2.22,16.52,16.52,0,0,0,11.14-.13,19.55,19.55,0,0,0,4.95-2.95,7,7,0,0,0,1.63-1.79,9.63,9.63,0,0,1,1.12-1.88c2.15-2.39-1.37-5.93-3.53-3.54A10.82,10.82,0,0,0,342,433a7.68,7.68,0,0,1-.85,1.44,11.16,11.16,0,0,1-3.37,2.16,11.28,11.28,0,0,1-8,.24,18.49,18.49,0,0,1-3.8-1.55,7,7,0,0,1-2.2-2.27,6.86,6.86,0,0,1-1.62-3.63c-.16-1.59-.46-3.1-.47-4.71h-5a5.7,5.7,0,0,0,.69,2.48c.93,1.82,3.3,1.4,4.32,0,1.4-1.92.32-4.72.73-6.9a6,6,0,0,1,1.66-3,12.85,12.85,0,0,1,1.32-1.52,8.78,8.78,0,0,1,1.88-.9,10.19,10.19,0,0,1,7.59-.42,16.19,16.19,0,0,1,3.69,2.3,4.4,4.4,0,0,1,.8.87,5.81,5.81,0,0,0,.54.82s.07-.58,0,.05l.34-1.26c-.11.24-.12.27,0,.08s0-.06-.22.13a7.29,7.29,0,0,0-.78.42,21,21,0,0,1-2.14.89c-1.71.63-3.33,1.58-5.1,2.06-4.07,1.1-8.63.6-12.8.57-3.21,0-3.22,5,0,5Z" transform="translate(-39.82 -92.96)"/><path class="f412e49b-1ba2-4910-a484-c4cc68e980ed" d="M459.91,161.23c-3.42,0-7.63.72-11.05.89a50.48,50.48,0,0,0-5.23.39c-2.25.39-4.35.54-6.63.87-4.64.65-9.08,1.13-13.79,1.4-7.21.43-14-.38-20.59-.69s-7.24-11.37-6.55-15.79A89.75,89.75,0,0,1,398.23,137c.95-3.2,1.45-6.43,2.25-9.64a16.54,16.54,0,0,1,1.14-3.16,10.88,10.88,0,0,0,1-4.34c.17-1.58,1-3,1.36-4.54a23.3,23.3,0,0,1,.71-3.36,26.68,26.68,0,0,1,5.28-8.09,41.34,41.34,0,0,1,4.5-3.66,18.49,18.49,0,0,0,1.77-1.88c.52-.51,1.38-.86,1.87-1.36.87-.9,2.06-1.12,3.14-1.7a8,8,0,0,1,4.47-.89,22,22,0,0,1,11,2.76,23,23,0,0,1,6.9,5.84c1.63,1.85,3.4,3.59,5.11,5.34,1.47,1.49,2.69,3.18,4.21,4.62,2,1.93,4.25,3.46,5.68,5.91a16,16,0,0,0,3.24,4.36c1.46,1.32,1.92,2.87,3,4.52.9,1.44,2.38,1.89,3.45,3.08a24.53,24.53,0,0,1,4.72,8.27c.8,2.16,1.95,5.07.81,7.3a13,13,0,0,1-2.48,2.87c-.79.81-1.4,1.74-2.16,2.58s-1.73,1.54-2.51,2.36c-.53.55-.95,1.22-1.54,1.76" transform="translate(-39.82 -92.96)"/><path class="a822258b-603b-41a1-bce9-fc434386b2d4" d="M459.91,160c-3.81,0-7.58.73-11.38.91s-7.76.72-11.62,1.25c-4.31.59-8.63,1.07-13,1.35a102.13,102.13,0,0,1-13.09-.14c-2.06-.13-4.12-.28-6.18-.4-1.3-.08-2.69,0-3.85-.66-1.87-1.12-2.67-3.52-3.14-5.53-1.29-5.56-.11-11.47,1.11-16.93.46-2,1.08-4,1.53-6s.85-4.15,1.38-6.2c.45-1.76,1.45-3.34,1.81-5.12.15-.75.2-1.53.28-2.29a13.32,13.32,0,0,1,.83-3c.69-1.89.72-3.93,1.58-5.76a26.7,26.7,0,0,1,2.93-4.83,22.34,22.34,0,0,1,4.06-4c.75-.59,1.56-1.11,2.29-1.73s1.1-1.35,1.79-1.89,1.38-1.07,2.06-1.54A18.59,18.59,0,0,1,422,96.2a10.17,10.17,0,0,1,5-.59A21.34,21.34,0,0,1,437.44,99c3.24,2.07,5.58,5.31,8.23,8s5.33,5.91,8.32,8.56a17.53,17.53,0,0,1,3.7,4.22,20.12,20.12,0,0,0,3.21,4.25c1.31,1.27,1.86,3,2.88,4.42s2.43,2,3.54,3.17c2.55,2.7,4.11,6.44,5.17,10,.61,2,.72,3.77-.77,5.37-1.25,1.34-2.41,2.77-3.66,4.1-.64.68-1.39,1.24-2.07,1.9s-1.18,1.41-1.83,2.06a1.25,1.25,0,0,0,1.77,1.77c.65-.65,1.17-1.42,1.83-2.07.83-.8,1.74-1.49,2.49-2.37s1.21-1.56,1.89-2.27,1.36-1.31,1.95-2.05c2.56-3.24.87-7.35-.51-10.73a27.12,27.12,0,0,0-2.73-5.2,17.71,17.71,0,0,0-4-4c-1.51-1.16-2-3.07-3.1-4.57s-2.55-2.67-3.54-4.33a20.43,20.43,0,0,0-3.74-4.74,57.85,57.85,0,0,1-4.45-4.27c-2.86-3.27-5.91-6.37-8.88-9.54a23.94,23.94,0,0,0-9.64-6.32c-3.29-1.18-7.56-1.87-11-1a13.27,13.27,0,0,0-2.34,1,12.29,12.29,0,0,0-2.73,1.44c-.69.56-1.51,1-2.17,1.63a25,25,0,0,1-2,2.08,29.32,29.32,0,0,0-8.3,9,16.07,16.07,0,0,0-2,5.45c-.33,2-1.35,3.88-1.6,5.94a18.41,18.41,0,0,1-.36,2.55c-.26,1-.78,1.86-1.13,2.8a48.41,48.41,0,0,0-1.64,6.64c-.92,4.33-2.16,8.53-2.84,12.91a39,39,0,0,0-.71,8.27c.25,4.47,1.57,11.11,6.79,12.21a42,42,0,0,0,5.73.42c2.23.15,4.46.3,6.7.41a102.52,102.52,0,0,0,14.13-.34c4.59-.42,9.16-1,13.73-1.63,4-.52,8-.69,12-1.12,2-.22,4.11-.43,6.18-.45a1.25,1.25,0,0,0,0-2.5Z" transform="translate(-39.82 -92.96)"/><path class="f412e49b-1ba2-4910-a484-c4cc68e980ed" d="M497.41,145.05a27.42,27.42,0,0,0,4.44,0c1.23-.21,2.3-.84,3.58-1,1.83-.17,3.68-.1,5.52-.31a45,45,0,0,0,6-1.41c3.32-.84,6.79-.31,10.17-.86a55.4,55.4,0,0,1,10.78-.38c4.38.17,8.54.21,12.72,1.56,2.57.83,5.58,1.82,7.61,3.71a13.53,13.53,0,0,1,3.75,5.68c.7,2.29.31,5,.29,7.38,0,2.78-1.91,4.78-2.74,7.29a68.68,68.68,0,0,1-3.67,9.1,23.86,23.86,0,0,0-1.26,3,48.33,48.33,0,0,1-2.21,4.77,33,33,0,0,1-2.36,3.82c-1.36,2.18-3.44,4-4.54,6.31a35.29,35.29,0,0,1-3.8,6.33c-.9,1.19-1.21,2.63-2.22,3.75s-1.33,2.18-2.25,3.32c-1.07,1.33-1.48,2.46-3.08,3.18-2.64,1.2-6.41,1.72-9.16.63a12.69,12.69,0,0,1-6-4.27c-.88-1.15-1.41-2.49-2.26-3.63s-2.1-1.94-3-3a44.6,44.6,0,0,1-3.67-4.84,97.87,97.87,0,0,0-6.34-9.05c-2.29-2.75-4.49-5.74-6.59-8.66-1.63-2.27-3-4.64-4.53-7a7.52,7.52,0,0,1-1.37-6.33,16.74,16.74,0,0,1,1.17-4" transform="translate(-39.82 -92.96)"/><path class="a822258b-603b-41a1-bce9-fc434386b2d4" d="M497.41,146.3a25.33,25.33,0,0,0,4.77,0,24.59,24.59,0,0,0,2.36-.71,11.33,11.33,0,0,1,2.73-.33,37.53,37.53,0,0,0,5-.39c1.86-.32,3.64-1,5.48-1.37a27.43,27.43,0,0,1,5.2-.41,48.86,48.86,0,0,0,5.27-.45,63.84,63.84,0,0,1,10.62-.19,44.69,44.69,0,0,1,10.57,1.2c2.87.81,6,1.81,8.23,3.94a10.94,10.94,0,0,1,3.51,8.4,22.18,22.18,0,0,1-.27,4.68,20.87,20.87,0,0,1-1.85,4.09c-1.48,3.13-2.33,6.51-3.83,9.65s-2.58,6.26-4.18,9.27c-1.52,2.85-3.72,5.16-5.56,7.78a43.44,43.44,0,0,0-2.23,4.08c-.86,1.51-1.9,2.86-2.84,4.32-.82,1.26-1.35,2.55-2.27,3.75s-1.72,2.61-2.62,3.87a5.32,5.32,0,0,1-2.9,2.2,12.83,12.83,0,0,1-4.6.7,11.26,11.26,0,0,1-7.44-3.63,32.6,32.6,0,0,1-2.54-3.9,27.27,27.27,0,0,0-3.22-3.32c-2.7-2.79-4.61-6.29-6.78-9.49-2.28-3.35-5-6.4-7.38-9.65s-4.42-6.36-6.54-9.63c-.92-1.41-1.85-2.76-1.89-4.51a13.07,13.07,0,0,1,1.19-5.33c.64-1.46-1.51-2.74-2.16-1.27-1.23,2.8-2.14,6.33-1,9.29a23.77,23.77,0,0,0,2.47,4.25c1.07,1.69,2.12,3.39,3.28,5,2.17,3,4.42,6,6.79,8.91s4.45,6.36,6.66,9.57a39.9,39.9,0,0,0,3.35,4.32c1.2,1.32,2.61,2.27,3.55,3.83,1.58,2.65,3.2,4.9,6,6.36a13.47,13.47,0,0,0,9.23,1.36,10.7,10.7,0,0,0,4.17-1.63,14.41,14.41,0,0,0,2.85-3.41c1.88-2.64,3.41-5.48,5.23-8.16a37.77,37.77,0,0,0,2.59-4.5,24.84,24.84,0,0,1,3.08-4.47,43.76,43.76,0,0,0,5.55-9.18c.78-1.68,1.32-3.45,2.13-5.12s1.52-3.32,2.18-5,1.11-3.43,1.86-5.05a31.42,31.42,0,0,0,2-4.33,18.91,18.91,0,0,0,.43-4.81,14.9,14.9,0,0,0-.55-5.48c-2.28-6.52-8.9-9.48-15.24-10.68a76.44,76.44,0,0,0-12.74-.89c-4.24-.06-8.38.67-12.6.77a26.88,26.88,0,0,0-6.32.72,34.12,34.12,0,0,1-6.56,1.35,24.38,24.38,0,0,0-6.09.63,9.87,9.87,0,0,1-2.94.65c-1,0-2.09-.1-3.13-.11a1.25,1.25,0,0,0,0,2.5Z" transform="translate(-39.82 -92.96)"/><path class="f412e49b-1ba2-4910-a484-c4cc68e980ed" d="M465,145c.55-.28.71-1.49.94-2a15.51,15.51,0,0,1,1.3-2.22c.92-1.44,1.43-3.16,2.47-4.49s3.26-2.19,4.76-2.76,3.72-.33,5.33-.13a27.65,27.65,0,0,1,3.42,1,38.11,38.11,0,0,1,4.46,1.33,41,41,0,0,0,4,1.42,16.27,16.27,0,0,1,2.9.91,15.57,15.57,0,0,1,4.05,2.94,6.24,6.24,0,0,1,2.06,4.33,37.73,37.73,0,0,1-.11,6.47,36.27,36.27,0,0,1-1.4,5.82c-.38,1-1,1.94-1.42,3a16.36,16.36,0,0,1-1.08,2.28c-.4.71-.78,1.42-1.25,2.09a13.39,13.39,0,0,1-2,1.89c-.66.62-1.24,1.29-1.88,1.92s-1,1.42-1.55,2c-1.41,1.46-3.95,1.94-5.93,2-2.59,0-4.76-1.46-7.24-2-1.75-.42-3.61-.7-5.34-1.25a21,21,0,0,1-3-1.71,22,22,0,0,1-6.44-5.32c-1.43-1.68-1.43-3.72-1-5.74.23-1.08.7-2.14.87-3.23a10.4,10.4,0,0,1,.59-2.32c.37-.88.87-1.68,1.25-2.55s.48-1.53.79-2.29.7-1.41,1-2.17" transform="translate(-39.82 -92.96)"/><path class="a822258b-603b-41a1-bce9-fc434386b2d4" d="M465.67,146.06c1.2-.88,1.26-2.41,2-3.62,1-1.65,1.75-3.51,2.83-5.1.93-1.37,2.71-2.06,4.21-2.61a10.16,10.16,0,0,1,5.68,0c4.17,1.05,8.16,2.69,12.3,3.87a11.57,11.57,0,0,1,5,3.08,7.35,7.35,0,0,1,1.49,2,7.86,7.86,0,0,1,.37,3,24.37,24.37,0,0,1-2.28,12,45.29,45.29,0,0,1-2.62,5.15,12.81,12.81,0,0,1-2.06,2c-.73.69-1.47,1.44-2.13,2.2a16.61,16.61,0,0,1-1.54,2,5.71,5.71,0,0,1-2.49,1.1,9.28,9.28,0,0,1-5.44-.42,43.64,43.64,0,0,0-6-1.79,29,29,0,0,1-2.89-.71,14.25,14.25,0,0,1-2.61-1.46,24.23,24.23,0,0,1-5.38-4.06,6.25,6.25,0,0,1-1.91-2.87,7.14,7.14,0,0,1,.19-3.31,29.35,29.35,0,0,1,1.86-6.13c1-1.92,1.71-4,2.53-6,.61-1.48-1.8-2.13-2.41-.66-.85,2.07-1.69,4.13-2.65,6.15a11.3,11.3,0,0,0-.9,2.78c-.22,1.17-.61,2.27-.89,3.43a8.31,8.31,0,0,0,.58,6.21,18.16,18.16,0,0,0,4.57,4.64,26.07,26.07,0,0,0,2.82,1.82c.9.51,1.72,1.15,2.67,1.58,2.21,1,4.72,1,7,1.79s4.21,1.79,6.56,1.8a11.07,11.07,0,0,0,5.47-1.3,6.43,6.43,0,0,0,2-1.85,22,22,0,0,1,2.13-2.5c.76-.78,1.69-1.4,2.41-2.21a15,15,0,0,0,1.8-2.84,31.82,31.82,0,0,0,4.12-12.78,31.43,31.43,0,0,0,0-3.5,15.56,15.56,0,0,0-.21-3.2,9.62,9.62,0,0,0-3.51-4.87A14.76,14.76,0,0,0,492.7,136c-2.49-.65-4.83-1.74-7.3-2.44a36.83,36.83,0,0,0-7.45-1.68,12,12,0,0,0-6.3,1.44,9.22,9.22,0,0,0-4.43,4.83c-.54,1.12-1.2,2.13-1.83,3.2a8.75,8.75,0,0,0-.69,1.45,5.53,5.53,0,0,1-.29,1.09c-1.28.95,0,3.12,1.26,2.16Z" transform="translate(-39.82 -92.96)"/><path class="a822258b-603b-41a1-bce9-fc434386b2d4" d="M448.55,130.28c-.23,1.21,1.05,2.15,1.89,2.79a42.71,42.71,0,0,1,3.47,2.63c.81.77,1.57,1.59,2.41,2.32a28.16,28.16,0,0,0,3,2.14c1,.64,1.81,1.4,2.76,2,.45.29.93.52,1.37.82a10.74,10.74,0,0,0,1.51,1c.73.33,1.37-.75.64-1.08a29.62,29.62,0,0,1-2.55-1.62c-.88-.53-1.65-1.23-2.49-1.82s-2-1.26-2.89-2a26,26,0,0,1-2.23-2.1,22.37,22.37,0,0,0-3.14-2.54,19.43,19.43,0,0,1-1.61-1.22c-.18-.15-.95-.74-.89-1,.15-.79-1.06-1.12-1.21-.33Z" transform="translate(-39.82 -92.96)"/><path class="f412e49b-1ba2-4910-a484-c4cc68e980ed" d="M437.71,149.59c3.55.07,7-.59,10.56-.59,3.15,0,6.26.24,9.38.39,1.86.1,3.78-.23,5.62-.1" transform="translate(-39.82 -92.96)"/><path class="a822258b-603b-41a1-bce9-fc434386b2d4" d="M437.71,150.21c4.28,0,8.51-.68,12.79-.55,2.14.06,4.28.21,6.41.32s4.24-.17,6.36-.06c.8,0,.8-1.21,0-1.25-2-.11-4.07.17-6.11.07-2.22-.1-4.44-.26-6.66-.33-4.28-.13-8.51.6-12.79.55a.63.63,0,0,0,0,1.25Z" transform="translate(-39.82 -92.96)"/><path class="a822258b-603b-41a1-bce9-fc434386b2d4" d="M499.78,156.13a22.19,22.19,0,0,1,3.83,1c1.4.3,2.83.46,4.25.64a76.55,76.55,0,0,0,9.09.46.63.63,0,0,0,0-1.25,76.55,76.55,0,0,1-9.09-.46,31.23,31.23,0,0,1-4.43-.72,16.51,16.51,0,0,0-3.65-.9c-.81,0-.81,1.22,0,1.25Z" transform="translate(-39.82 -92.96)"/><path class="a822258b-603b-41a1-bce9-fc434386b2d4" d="M495.78,164.11a7.43,7.43,0,0,0,2.27,2.23c.95.79,1.68,1.83,2.58,2.67s2.13,1.68,3.06,2.66,1.54,2.1,2.45,3c.57.57,1.45-.31.89-.89-.88-.88-1.5-2-2.33-2.9s-2.05-1.75-3.05-2.65-1.63-1.85-2.55-2.66c-.75-.66-1.79-1.19-2.24-2.12-.34-.72-1.42-.09-1.08.63Z" transform="translate(-39.82 -92.96)"/><rect class="fba91a0d-8a0e-4d29-8fc8-16d5bf6b4984" x="152.53" y="110.94" width="7.63" height="7.78"/><rect class="be1c2138-c580-4731-8f6d-37a139f73e05" x="178.05" y="110.93" width="3.27" height="3.47"/><rect class="be1c2138-c580-4731-8f6d-37a139f73e05" x="182.25" y="106.71" width="3.42" height="3.42"/><rect class="be1c2138-c580-4731-8f6d-37a139f73e05" x="186.48" y="102.44" width="3.34" height="3.47"/><rect class="be1c2138-c580-4731-8f6d-37a139f73e05" x="190.76" y="98.22" width="3.49" height="3.42"/><rect class="be1c2138-c580-4731-8f6d-37a139f73e05" x="195.02" y="93.87" width="3.49" height="3.42"/><rect class="fba91a0d-8a0e-4d29-8fc8-16d5bf6b4984" x="203.6" y="89.6" width="3.37" height="25.61"/><rect class="fba91a0d-8a0e-4d29-8fc8-16d5bf6b4984" x="206.98" y="115.2" width="13.62" height="3.42"/><rect class="fba91a0d-8a0e-4d29-8fc8-16d5bf6b4984" x="220.6" y="89.6" width="3.37" height="25.61"/><rect class="fba91a0d-8a0e-4d29-8fc8-16d5bf6b4984" x="229.4" y="98.26" width="3.53" height="16.95"/><rect class="fba91a0d-8a0e-4d29-8fc8-16d5bf6b4984" x="232.93" y="115.18" width="4.37" height="3.47"/><rect class="fba91a0d-8a0e-4d29-8fc8-16d5bf6b4984" x="237.31" y="106.39" width="3.78" height="8.82"/><rect class="fba91a0d-8a0e-4d29-8fc8-16d5bf6b4984" x="241.09" y="115.16" width="4.37" height="3.47"/><rect class="fba91a0d-8a0e-4d29-8fc8-16d5bf6b4984" x="245.46" y="98.26" width="3.22" height="16.95"/><rect class="fba91a0d-8a0e-4d29-8fc8-16d5bf6b4984" x="254.73" y="89.6" width="3.37" height="25.61"/><rect class="fba91a0d-8a0e-4d29-8fc8-16d5bf6b4984" x="258.11" y="115.2" width="13.62" height="3.42"/><rect class="fba91a0d-8a0e-4d29-8fc8-16d5bf6b4984" x="271.73" y="89.6" width="3.37" height="25.61"/><rect class="fba91a0d-8a0e-4d29-8fc8-16d5bf6b4984" x="284.07" y="98.55" width="12.13" height="3.42"/><rect class="fba91a0d-8a0e-4d29-8fc8-16d5bf6b4984" x="284.07" y="115.2" width="12.13" height="3.42"/><rect class="fba91a0d-8a0e-4d29-8fc8-16d5bf6b4984" x="315.56" y="199.84" width="13.23" height="3.42" transform="translate(80.8 430.77) rotate(-90)"/><rect class="fba91a0d-8a0e-4d29-8fc8-16d5bf6b4984" x="296.2" y="111.63" width="3.8" height="3.42"/><rect class="fba91a0d-8a0e-4d29-8fc8-16d5bf6b4984" x="296.2" y="101.65" width="3.8" height="3.42"/><rect class="fba91a0d-8a0e-4d29-8fc8-16d5bf6b4984" x="309.39" y="98.55" width="12.13" height="3.42"/><rect class="fba91a0d-8a0e-4d29-8fc8-16d5bf6b4984" x="309.39" y="115.2" width="12.13" height="3.42"/><rect class="fba91a0d-8a0e-4d29-8fc8-16d5bf6b4984" x="340.88" y="199.84" width="13.23" height="3.42" transform="translate(106.12 456.09) rotate(-90)"/><rect class="fba91a0d-8a0e-4d29-8fc8-16d5bf6b4984" x="356.44" y="199.84" width="13.23" height="3.42" transform="translate(121.68 471.64) rotate(-90)"/><rect class="fba91a0d-8a0e-4d29-8fc8-16d5bf6b4984" x="366.34" y="199.84" width="13.23" height="3.42" transform="translate(131.58 481.54) rotate(-90)"/><rect class="fba91a0d-8a0e-4d29-8fc8-16d5bf6b4984" x="375.28" y="195.43" width="28.9" height="3.42" transform="translate(152.76 493.91) rotate(-90)"/><rect class="fba91a0d-8a0e-4d29-8fc8-16d5bf6b4984" x="334.84" y="115.2" width="13.35" height="3.42"/><rect class="fba91a0d-8a0e-4d29-8fc8-16d5bf6b4984" x="334.84" y="98.55" width="9.61" height="3.42"/><rect class="fba91a0d-8a0e-4d29-8fc8-16d5bf6b4984" x="344.45" y="101.98" width="3.74" height="3.42"/><rect class="fba91a0d-8a0e-4d29-8fc8-16d5bf6b4984" x="360.21" y="98.55" width="13.45" height="3.42"/><rect class="fba91a0d-8a0e-4d29-8fc8-16d5bf6b4984" x="360.21" y="115.2" width="13.45" height="3.42"/><rect class="fba91a0d-8a0e-4d29-8fc8-16d5bf6b4984" x="391.71" y="199.84" width="13.23" height="3.42" transform="translate(156.95 506.91) rotate(-90)"/><rect class="fba91a0d-8a0e-4d29-8fc8-16d5bf6b4984" x="360.21" y="106.88" width="13.45" height="3.42"/><rect class="fba91a0d-8a0e-4d29-8fc8-16d5bf6b4984" x="411.03" y="197.39" width="8.33" height="3.42" transform="translate(176.27 521.33) rotate(-90)"/><text class="bb5b65e8-c97b-4388-9583-8a60e13b4450" transform="translate(37.94 124.82)">&gt;&gt;&gt;</text></svg>